PathFileType	4	(X/Y/Z)	TVC_60_BWA02_walk_RCNL2025.trc
DataRate	CameraRate	NumFrames	NumMarkers	Units	OrigDataRate	OrigDataStartFrame	OrigNumFrames
100	100	12	27	mm	100	242	276
Frame#	Time	R_Shoulder			L_Shoulder			C7			J_Notch			R_Elbow			L_Elbow			R_Wrist			L_Wrist			R_Asis			L_Asis			R_Psis			L_Psis			Sacral			Thoracic			Sternum			R_Thigh_Lateral			R_Knee_Lateral			R_Shank_Lateral			R_Ankle_Lateral			R_Heel			R_Toe			L_Thigh_Lateral			L_Knee_Lateral			L_Shank_Lateral			L_Ankle_Lateral			L_Heel			L_Toe		
		X1	Y1	Z1	X2	Y2	Z2	X3	Y3	Z3	X4	Y4	Z4	X5	Y5	Z5	X6	Y6	Z6	X7	Y7	Z7	X8	Y8	Z8	X9	Y9	Z9	X10	Y10	Z10	X11	Y11	Z11	X12	Y12	Z12	X13	Y13	Z13	X14	Y14	Z14	X15	Y15	Z15	X16	Y16	Z16	X17	Y17	Z17	X18	Y18	Z18	X19	Y19	Z19	X20	Y20	Z20	X21	Y21	Z21	X22	Y22	Z22	X23	Y23	Z23	X24	Y24	Z24	X25	Y25	Z25	X26	Y26	Z26	X27	Y27	Z27
242	2.41000000	1074.639893	1308.405640	-89.182014	1073.325439	1339.898315	-439.727142	1019.667236	1389.114502	-264.887054	1126.074951	1255.852661	-271.041656	944.047729	999.875793	-21.242622	1060.494385	1001.864746	-527.640503	961.181915	765.862762	22.283237	1180.335083	803.413696	-571.804047	1094.967529	897.157288	-134.119598	1080.350342	902.593018	-421.547363	915.193542	898.484924	-206.196121	909.825562	904.858704	-315.896637	912.509552	901.671814	-261.046379	957.562683	1184.718384	-271.703064	1143.586670	1060.573120	-267.122314	1141.350708	605.654297	-47.852764	1233.041138	470.702332	-111.958893	1272.386475	260.725494	-69.122261	1307.052124	84.200584	-133.124847	1274.406006	65.825912	-187.184708	1434.051758	107.874748	-124.419777	1017.230591	618.453186	-468.317749	1003.257080	429.029388	-381.786133	937.865112	246.224472	-406.076111	867.988159	63.052933	-321.066010	820.070984	70.962082	-282.920898	991.377502	41.281342	-299.699860
243	2.42000000	1082.536255	1308.076294	-88.467445	1081.038696	1338.954834	-439.133667	1027.484131	1388.399170	-264.322815	1133.959473	1255.154175	-270.365753	949.638794	1000.404358	-20.734682	1069.295532	1000.947815	-527.119934	964.474548	766.326477	23.231508	1189.877502	802.936707	-571.162659	1103.103760	896.163208	-133.223053	1087.502197	901.926880	-420.814087	923.161682	897.677917	-204.752090	917.495361	904.143555	-314.347595	920.328522	900.910736	-259.549843	965.445679	1183.972534	-270.689941	1151.319214	1059.776489	-266.411194	1147.737183	603.914856	-47.416367	1239.453857	469.518585	-111.821152	1285.048340	261.228058	-68.096458	1325.581421	85.005272	-131.800415	1293.040283	65.727615	-185.710815	1452.826294	111.387527	-124.320923	1022.921326	618.161377	-467.722809	1006.586060	428.823792	-381.357391	939.600952	246.680923	-405.772888	868.264160	63.865082	-320.997925	820.441589	72.138283	-282.832123	991.448120	41.282085	-299.706329
244	2.43000000	1090.460205	1307.757202	-87.688957	1088.725342	1338.012695	-438.486633	1035.310791	1387.677979	-263.697571	1141.885620	1254.487915	-269.633362	955.413635	1000.899963	-20.165516	1077.945923	1000.009216	-526.470825	967.974640	766.770508	24.217197	1199.198608	802.401703	-570.435394	1111.347656	895.199524	-132.271057	1094.831421	901.275269	-420.013367	931.274231	896.861267	-203.255661	925.327515	903.409851	-312.749329	928.300873	900.135559	-258.002495	973.393921	1183.200439	-269.618073	1159.158569	1059.024048	-265.638153	1154.295654	602.101807	-47.035706	1246.024170	468.304779	-111.722778	1296.815918	261.584747	-67.253937	1342.009277	85.688789	-130.782883	1309.550781	65.742851	-184.595581	1469.517212	114.054443	-124.349136	1028.734741	617.886658	-467.115906	1010.096252	428.674225	-380.929840	941.443604	247.226639	-405.480286	868.584656	64.793785	-320.979065	820.878113	73.450821	-282.812958	991.526306	41.284119	-299.741028
245	2.44000000	1098.405396	1307.453491	-86.844101	1096.395752	1337.082275	-437.783386	1043.149536	1386.958374	-263.010559	1149.857300	1253.862915	-268.840179	961.375061	1001.362061	-19.535799	1086.445801	999.059082	-525.692261	971.692963	767.194519	25.242485	1208.292908	801.814209	-569.621582	1119.699463	894.278687	-131.261230	1102.362061	900.637939	-419.139343	939.535156	896.047119	-201.715210	933.333313	902.668945	-311.112000	936.434235	899.358032	-256.413605	981.412048	1182.408936	-268.493530	1167.115112	1058.326172	-264.796692	1161.108887	600.292114	-46.674656	1252.801636	467.079865	-111.659103	1307.591187	261.672791	-66.635269	1356.205566	86.089134	-130.145370	1323.814453	65.715530	-183.919189	1483.982056	115.726860	-124.528214	1034.679688	617.632629	-466.503967	1013.795288	428.581116	-380.503632	943.403870	247.863556	-405.201447	868.955139	65.843452	-321.013062	821.383423	74.905289	-282.869049	991.616394	41.290024	-299.803650
246	2.45000000	1106.366211	1307.170166	-85.931023	1104.061157	1336.173340	-437.021545	1051.002930	1386.247437	-262.261444	1157.878662	1253.287720	-267.982239	967.525208	1001.790344	-18.846449	1094.796509	998.107544	-524.783752	975.640259	767.598419	26.309746	1217.155823	801.179688	-568.720734	1128.158936	893.411804	-130.191193	1110.116577	900.013367	-418.186157	947.947083	895.247253	-200.139725	941.522278	901.932007	-309.446320	944.734680	898.589630	-254.793022	989.504211	1181.604858	-267.322693	1175.198853	1057.691895	-263.880371	1168.243408	598.553528	-46.293842	1259.821411	465.857361	-111.624580	1317.311646	261.384735	-66.279831	1368.108643	86.072784	-129.946091	1335.769287	65.509819	-183.737503	1496.144531	116.299324	-124.905983	1040.767212	617.401123	-465.889313	1017.688232	428.542389	-380.075775	945.492798	248.592346	-404.938721	869.381775	67.016464	-321.103119	821.959473	76.506607	-283.004272	991.724060	41.302929	-299.892212
247	2.46000000	1114.337036	1306.911499	-84.948509	1111.733765	1335.294922	-436.199280	1058.874023	1385.552490	-261.450409	1165.953613	1252.770020	-267.055969	973.865601	1002.184753	-18.098598	1103.000244	997.164490	-523.745361	979.827484	767.982483	27.421479	1225.783447	800.503815	-567.732513	1136.725952	892.608643	-129.058655	1118.116211	899.399109	-417.148132	956.510864	894.473450	-198.538574	949.901978	901.210083	-307.763489	953.206421	897.841766	-253.151031	997.674072	1180.795410	-266.111938	1183.418945	1057.129517	-262.882935	1175.739014	596.938965	-45.859394	1267.102539	464.645782	-111.613174	1325.961426	260.644104	-66.223343	1377.734863	85.546677	-130.221329	1345.422974	65.021873	-184.075470	1506.005615	115.719841	-125.545547	1047.010376	617.192444	-465.269257	1021.778503	428.554260	-379.640350	947.721680	249.412552	-404.694092	869.871338	68.313934	-321.251862	822.607727	78.259666	-283.221161	991.856689	41.326385	-300.003632
248	2.47000000	1122.313110	1306.682007	-83.896072	1119.426514	1334.455811	-435.315277	1066.765747	1384.880615	-260.578033	1174.085693	1252.316895	-266.058350	980.396973	1002.545593	-17.293587	1111.060059	996.239685	-522.577881	984.265411	768.347076	28.580239	1234.172913	799.792053	-566.656830	1145.399658	891.877747	-127.861664	1126.379150	898.792297	-416.019775	965.225952	893.737000	-196.921234	958.477722	900.513733	-306.074829	961.851837	897.125366	-251.498032	1005.924500	1179.987915	-264.867737	1191.783569	1056.646240	-261.798615	1183.601562	595.480652	-45.350937	1274.649292	463.449921	-111.618652	1333.574341	259.414612	-66.492569	1385.183350	84.466194	-130.980362	1352.860352	64.188652	-184.924179	1513.651855	113.995529	-126.513214	1053.423218	617.006104	-464.636139	1026.068970	428.612457	-379.189087	950.102478	250.323120	-404.469269	870.431152	69.736847	-321.461182	823.330017	80.169998	-283.520935	992.023071	41.364140	-300.133972
249	2.48000000	1130.290161	1306.485596	-82.773933	1127.152344	1333.663574	-434.368652	1074.681030	1384.238403	-259.645355	1182.278198	1251.934326	-264.987030	987.119446	1002.873596	-16.432911	1118.980225	995.342834	-521.282532	988.964722	768.692871	29.788549	1242.322083	799.050018	-565.493622	1154.178711	891.226318	-126.598740	1134.920532	898.190308	-414.796082	974.089661	893.048950	-195.297028	967.252197	899.852905	-304.391693	970.670929	896.450928	-249.844360	1014.257568	1179.189819	-263.596313	1200.299194	1056.248657	-260.622284	1191.799805	594.186523	-44.767094	1282.452515	462.272522	-111.634483	1340.231201	257.703461	-67.099350	1390.633667	82.838455	-132.202530	1358.244385	62.992962	-186.241302	1519.255005	111.192696	-127.864746	1060.021729	616.840149	-463.978943	1030.563721	428.712830	-378.712402	952.648010	251.322968	-404.265625	871.069275	71.287064	-321.732056	824.128723	82.244308	-283.903412	992.232788	41.419792	-300.279388
250	2.49000000	1138.264893	1306.326050	-81.583069	1134.924438	1332.925659	-433.359161	1082.623169	1383.632690	-258.653839	1190.533813	1251.627808	-263.840271	994.032410	1003.169739	-15.518183	1126.765869	994.483215	-519.861450	993.935822	769.020813	31.048824	1250.229980	798.283295	-564.243073	1163.061157	890.660889	-125.269142	1143.751587	897.591614	-413.472687	983.097595	892.419495	-193.674957	976.225342	899.236694	-302.725159	979.661469	895.828094	-248.200058	1022.674377	1178.409058	-262.303680	1208.970337	1055.941895	-259.349915	1200.269165	593.042419	-44.126289	1290.491577	461.116028	-111.653572	1346.052246	255.559204	-68.035599	1394.338867	80.720825	-133.836411	1361.813354	61.463867	-187.953918	1523.067627	107.432152	-129.631317	1066.825928	616.691406	-463.286133	1035.269409	428.851868	-378.200867	955.372498	252.411179	-404.083893	871.795044	72.968063	-322.064209	825.008179	84.490791	-284.367004	992.495056	41.496380	-300.436493
251	2.50000000	1146.234741	1306.207275	-80.325203	1142.755981	1332.248657	-432.287018	1090.595215	1383.069702	-257.605286	1198.854858	1251.401611	-262.617157	1001.134644	1003.435608	-14.551086	1134.423096	993.670105	-518.317383	999.189026	769.332062	32.363275	1257.896423	797.497467	-562.905396	1172.043579	890.186951	-123.873070	1152.878540	896.995972	-412.046082	992.243225	891.858337	-192.063400	985.393982	898.673218	-301.085785	988.818604	895.265778	-246.574593	1031.175049	1177.653564	-260.995483	1217.799316	1055.730469	-257.978516	1208.924561	592.019897	-43.462116	1298.738281	459.984222	-111.667862	1351.187988	253.067200	-69.270454	1396.612549	78.214661	-135.801437	1363.869751	59.672825	-189.963470	1525.411865	102.880531	-131.806931	1073.859863	616.556091	-462.546967	1040.197388	429.026917	-377.646088	958.291382	253.587204	-403.923981	872.619385	74.785263	-322.456360	825.975769	86.919327	-284.908722	992.817810	41.595821	-300.602631
252	2.51000000	1154.198120	1306.132690	-79.002777	1150.659302	1331.638672	-431.153015	1098.600464	1382.555542	-256.501862	1207.242432	1251.259155	-261.317566	1008.424316	1003.673035	-13.533329	1141.958740	992.912292	-516.653809	1004.734100	769.628021	33.733828	1265.322327	796.698273	-561.480896	1181.120972	889.809265	-122.411743	1162.302124	896.405334	-410.513855	1001.517883	891.374084	-190.470078	994.751526	898.169739	-299.483276	998.134705	894.771912	-244.976677	1039.758667	1176.931519	-259.676880	1226.785400	1055.618286	-256.506561	1217.675659	591.086365	-42.814827	1307.158447	458.883362	-111.667892	1355.812378	250.342682	-70.749008	1397.810303	75.454964	-137.991898	1364.763916	57.726166	-192.152313	1526.661377	97.738152	-134.339920	1081.150146	616.430054	-461.751282	1045.364990	429.236328	-377.041534	961.422058	254.850922	-403.784393	873.555054	76.746292	-322.905945	827.043091	89.541649	-285.523804	993.207153	41.718307	-300.775421
253	2.52000000	1162.154297	1306.105835	-77.618919	1158.645996	1331.101440	-429.958405	1106.641846	1382.095825	-255.345963	1215.697266	1251.203003	-259.942139	1015.898804	1003.884277	-12.466601	1149.380859	992.218750	-514.874939	1010.580627	769.910309	35.162058	1272.509521	795.891541	-559.970032	1190.286987	889.532043	-120.887436	1172.016724	895.823975	-408.874939	1010.910828	890.974548	-188.901855	1004.288208	897.732483	-297.926178	1007.599518	894.353516	-243.414017	1048.423218	1176.250977	-258.352600	1235.925171	1055.607788	-254.934082	1226.443237	590.214844	-42.221218	1315.716187	457.822723	-111.642540	1360.116577	247.522888	-72.392281	1398.305786	72.597160	-140.283829	1364.870972	55.753857	-194.391861	1527.217041	92.223953	-137.131790	1088.724365	616.310303	-460.889008	1050.796753	429.479309	-376.383301	964.783997	256.203094	-403.661957	874.617126	78.860985	-323.409027	828.226807	92.371353	-286.205536	993.667419	41.861877	-300.952545
